# xmcd
#
# Track frame offsets:
#	183
#	14258
#	28883
#	45358
#	56458
#	70883
#	86808
#	100633
#	116833
#	129658
#	143333
#	155183
#	169408
#	183183
#	199758
#	212958
#
# Disc length: 3019 seconds
#
# Revision: 1
# Processed by: cddbd v1.5.1PL0 Copyright (c) Steve Scherf et al.
# Submitted via: audiograbber 1.83.01
#
DISCID=e20bc910
DTITLE=Various Artist - Die volkstümliche Hitparade, CD1
DYEAR=1992
DGENRE=
TTITLE0=Die Wildecker Herzbuben - Mein Frauchen
TTITLE1=Patrick Lindner - Ein kleines Feuer, das dich wärmt
TTITLE2=Bianca - Und der Wind nahm das Lied
TTITLE3=Stefan Mross - Die Herzen auf - die Musi kommt
TTITLE4=Müchner Zwietracht - Komm mit zum schönen Isarstrand
TTITLE5=Nockaln Quintett - Sommerwind will keine Tränen seh'n
TTITLE6=Petra Kauch - Muatterl
TTITLE7=Sepp and die Steigerwälder Musikanten - Crazy Holiday
TTITLE8=Original Naabtal Duo - Wenn mei Herz a Vogerl wär'
TTITLE9=Alpen Tiroler - I bin happy
TTITLE10=White Stars - Meine Resi macht mi crazy
TTITLE11=Elfie Graf - Rote Rosen lügen nicht
TTITLE12=Kurt Elsasser - Auf gut deutsch heißt das ich liebe dich
TTITLE13=Chamer Buam - (Bei unsrer) Traumhochzeit
TTITLE14=Patrizius - Ich bin was ich bin nur mit dir
TTITLE15=Mühlenhof Musikanten - Diese Welt ist uns're Welt
EXTD=
EXTT0=
EXTT1=
EXTT2=
EXTT3=
EXTT4=
EXTT5=
EXTT6=
EXTT7=
EXTT8=
EXTT9=
EXTT10=
EXTT11=
EXTT12=
EXTT13=
EXTT14=
EXTT15=
PLAYORDER=
